<svg width="415" height="109" viewBox="0 0 415 109" fill="none" xmlns="http://www.w3.org/2000/svg">
<g clip-path="url(#clip0_2673_116)">
<path fill-rule="evenodd" clip-rule="evenodd" d="M63.5798 23.2584C59.8371 23.2584 56.1311 23.9936 52.6733 25.4219C49.2156 26.8502 46.0737 28.9436 43.4273 31.5828C40.7808 34.2219 38.6815 37.355 37.2492 40.8032C35.9754 43.8699 35.2514 47.1324 35.1068 50.4423C35.0737 51.1999 34.6509 51.8934 33.9722 52.2317L24.7874 56.8115C24.1087 57.1499 23.6737 57.8433 23.7068 58.6009C23.8514 61.9108 24.5754 65.1733 25.8492 68.24C27.2815 71.6882 29.3808 74.8213 32.0273 77.4604C34.6737 80.0996 37.8156 82.193 41.2733 83.6213C44.7311 85.0496 48.4371 85.7848 52.1798 85.7848C55.9225 85.7848 59.6285 85.0496 63.0863 83.6213C66.5441 82.193 69.6859 80.0996 72.3323 77.4604C74.9788 74.8213 77.0781 71.6882 78.5104 68.24C79.7842 65.1733 80.5082 61.9108 80.6528 58.6009C80.6859 57.8433 81.1087 57.1499 81.7874 56.8115L90.9722 52.2317C91.6509 51.8934 92.0859 51.1999 92.0528 50.4423C91.9082 47.1324 91.1842 43.8699 89.9104 40.8032C88.4781 37.355 86.3788 34.2219 83.7323 31.5828C81.0859 28.9436 77.9441 26.8502 74.4863 25.4219C71.0285 23.9936 67.3225 23.2584 63.5798 23.2584ZM76.7451 46.2414C77.3026 47.5836 77.6495 49.0009 77.7758 50.4435C77.8419 51.1989 77.4009 51.8934 76.7222 52.2317L67.5374 56.8115C66.8587 57.1499 66.4419 57.8443 66.3758 58.5997C66.2495 60.0423 65.9026 61.4596 65.3451 62.8018C64.629 64.5259 63.5793 66.0925 62.2561 67.4121C60.9328 68.7316 59.3619 69.7784 57.633 70.4925C55.9042 71.2067 54.0511 71.5742 52.1798 71.5742C50.3085 71.5742 48.4555 71.2067 46.7266 70.4925C44.9977 69.7784 43.4268 68.7316 42.1035 67.4121C40.7803 66.0925 39.7307 64.5259 39.0145 62.8018C38.457 61.4596 38.1101 60.0423 37.9838 58.5997C37.9177 57.8443 38.3587 57.1499 39.0374 56.8115L48.2222 52.2317C48.9009 51.8934 49.3177 51.1989 49.3838 50.4435C49.5101 49.0009 49.857 47.5836 50.4145 46.2414C51.1306 44.5173 52.1803 42.9507 53.5035 41.6311C54.8268 40.3116 56.3977 39.2648 58.1266 38.5507C59.8555 37.8365 61.7085 37.469 63.5798 37.469C65.4511 37.469 67.3042 37.8365 69.033 38.5507C70.7619 39.2648 72.3328 40.3116 73.6561 41.6311C74.9793 42.9507 76.029 44.5173 76.7451 46.2414Z" fill="black"/>
<path fill-rule="evenodd" clip-rule="evenodd" d="M63.5781 0.521606C56.8413 0.521606 50.1704 1.84484 43.9464 4.41577C37.7224 6.98669 32.0672 10.755 27.3035 15.5054C22.5399 20.2559 18.7612 25.8955 16.1831 32.1022C13.7634 37.9276 12.4459 44.1456 12.2931 50.442C12.2747 51.2001 11.8492 51.8934 11.1705 52.2317L1.98569 56.8115C1.30703 57.1499 0.874749 57.8431 0.893143 58.6012C1.04592 64.8976 2.36345 71.1156 4.78312 76.941C7.36118 83.1478 11.1399 88.7874 15.9035 93.5378C20.6672 98.2882 26.3224 102.057 32.5465 104.627C38.7705 107.198 45.4413 108.522 52.1781 108.522C58.9149 108.522 65.5858 107.198 71.8098 104.627C78.0338 102.057 83.689 98.2882 88.4527 93.5378C93.2163 88.7874 96.9951 83.1478 99.5731 76.941C101.993 71.1156 103.31 64.8976 103.463 58.6012C103.481 57.8431 103.907 57.1499 104.585 56.8115L113.77 52.2317C114.449 51.8934 114.881 51.2001 114.863 50.442C114.71 44.1456 113.393 37.9276 110.973 32.1022C108.395 25.8955 104.616 20.2559 99.8527 15.5054C95.089 10.755 89.4338 6.9867 83.2098 4.41577C76.9858 1.84485 70.3149 0.521606 63.5781 0.521606ZM89.2073 58.6011C89.2328 57.8432 89.657 57.1499 90.3357 56.8115L99.5205 52.2317C100.199 51.8934 100.633 51.2 100.607 50.4421C100.458 46.0122 99.5113 41.6416 97.8078 37.5404C95.9459 33.0577 93.2168 28.9846 89.7764 25.5538C86.336 22.1229 82.2516 19.4014 77.7565 17.5446C73.2614 15.6878 68.4436 14.7321 63.5781 14.7321C58.7126 14.7321 53.8948 15.6878 49.3997 17.5446C44.9046 19.4014 40.8202 22.1229 37.3798 25.5538C33.9394 28.9846 31.2103 33.0577 29.3484 37.5404C27.6449 41.6416 26.6977 46.0122 26.5489 50.4421C26.5234 51.2 26.0992 51.8934 25.4205 52.2317L16.2357 56.8115C15.557 57.1499 15.1234 57.8432 15.1489 58.6011C15.2977 63.031 16.2449 67.4016 17.9484 71.5029C19.8103 75.9855 22.5394 80.0586 25.9798 83.4894C29.4202 86.9203 33.5046 89.6418 37.9997 91.4986C42.4948 93.3554 47.3126 94.3111 52.1781 94.3111C57.0436 94.3111 61.8614 93.3554 66.3565 91.4986C70.8516 89.6418 74.936 86.9203 78.3764 83.4894C81.8168 80.0586 84.5459 75.9855 86.4079 71.5029C88.1114 67.4016 89.0585 63.031 89.2073 58.6011Z" fill="black"/>
<path d="M266.742 17.3497C265.223 17.3497 263.939 16.8247 262.889 15.7747C261.839 14.7247 261.314 13.4497 261.314 11.9497C261.314 10.4122 261.839 9.12786 262.889 8.09661C263.939 7.04661 265.223 6.52161 266.742 6.52161C268.261 6.52161 269.536 7.04661 270.567 8.09661C271.617 9.12786 272.142 10.4122 272.142 11.9497C272.142 13.4497 271.617 14.7247 270.567 15.7747C269.536 16.8247 268.261 17.3497 266.742 17.3497Z" fill="black"/>
<path d="M262.27 51.0716V20.8091H271.158V51.0716H262.27Z" fill="black"/>
<path fill-rule="evenodd" clip-rule="evenodd" d="M276.172 59.9759V20.8091H284.609V23.8185H284.719C285.251 23.2948 285.824 22.8167 286.437 22.3841C288.425 20.9966 290.712 20.3029 293.3 20.3029C295.569 20.3029 297.734 20.8935 299.797 22.0747C301.878 23.256 303.565 25.0091 304.859 27.3341C306.153 29.6591 306.781 32.556 306.744 36.0247C306.762 38.6497 306.397 40.9372 305.647 42.8872C304.897 44.8185 303.884 46.4216 302.609 47.6966C301.334 48.9716 299.909 49.9279 298.334 50.5654C296.759 51.2029 295.165 51.5216 293.553 51.5216C291.003 51.5216 288.715 50.8091 286.69 49.3841C286.181 49.0207 285.698 48.6269 285.241 48.2029H285.059V54.8973L276.172 59.9759ZM291.472 44.0966C292.784 44.0779 293.937 43.731 294.931 43.056C295.925 42.381 296.703 41.4247 297.265 40.1872C297.828 38.9497 298.1 37.506 298.081 35.856C298.1 34.1685 297.819 32.7247 297.237 31.5247C296.675 30.306 295.878 29.3779 294.847 28.7404C293.815 28.0841 292.634 27.7654 291.303 27.7841C290.047 27.7654 288.922 28.0747 287.928 28.7122C286.934 29.3497 286.147 30.2779 285.565 31.4966C284.984 32.6966 284.694 34.1497 284.694 35.856C284.694 37.506 284.984 38.9497 285.565 40.1872C286.165 41.4247 286.972 42.381 287.984 43.056C288.997 43.731 290.159 44.0779 291.472 44.0966Z" fill="black"/>
<path d="M320.477 51.5216C318.677 51.5216 316.952 51.2122 315.302 50.5934C313.671 49.9747 312.227 49.1028 310.971 47.9778C309.715 46.8341 308.768 45.5028 308.131 43.9841L315.106 40.9184C315.574 41.7997 316.277 42.6341 317.215 43.4216C318.152 44.2091 319.259 44.6028 320.534 44.6028C321.209 44.6028 321.799 44.4903 322.306 44.2653C322.812 44.0216 323.206 43.7122 323.487 43.3372C323.787 42.9622 323.937 42.5591 323.937 42.1278C323.937 41.5841 323.721 41.1153 323.29 40.7216C322.859 40.3278 322.306 39.9903 321.631 39.7091C320.956 39.4278 320.243 39.1841 319.493 38.9778C318.762 38.7716 318.087 38.5841 317.468 38.4153C316.043 37.9841 314.693 37.3934 313.418 36.6434C312.162 35.8747 311.14 34.8997 310.352 33.7184C309.565 32.5372 309.171 31.1028 309.171 29.4153C309.171 27.6341 309.631 26.0684 310.549 24.7184C311.487 23.3497 312.752 22.2809 314.346 21.5122C315.959 20.7434 317.796 20.3591 319.859 20.3591C322.427 20.3591 324.734 20.9497 326.777 22.1309C328.84 23.3122 330.302 24.8778 331.165 26.8278L324.331 29.7809C323.974 29.1809 323.449 28.5997 322.756 28.0372C322.081 27.4747 321.218 27.1934 320.168 27.1934C319.287 27.1934 318.556 27.4184 317.974 27.8684C317.393 28.3184 317.102 28.8809 317.102 29.5559C317.102 30.2309 317.393 30.7747 317.974 31.1872C318.556 31.5997 319.296 31.9559 320.196 32.2559C321.096 32.5559 322.034 32.8466 323.009 33.1278C323.759 33.3341 324.631 33.6341 325.624 34.0278C326.618 34.4028 327.584 34.9184 328.521 35.5747C329.477 36.2309 330.265 37.0747 330.884 38.1059C331.521 39.1372 331.84 40.4028 331.84 41.9028C331.84 43.7966 331.315 45.4747 330.265 46.9372C329.234 48.3809 327.856 49.5059 326.131 50.3122C324.424 51.1184 322.54 51.5216 320.477 51.5216Z" fill="black"/>
<path d="M367.967 51.0716V20.8091H376.433V24.6622H376.588C377.249 23.7415 377.994 22.9634 378.823 22.3278C380.511 21.0153 382.508 20.3591 384.814 20.3591C386.727 20.3591 388.348 20.8278 389.68 21.7653C390.707 22.4642 391.544 23.4017 392.191 24.5778H392.35C393.308 23.3563 394.472 22.4001 395.839 21.7091C397.62 20.8091 399.561 20.3591 401.661 20.3591C403.667 20.3591 405.317 20.7153 406.611 21.4278C407.905 22.1216 408.917 23.0403 409.648 24.1841C410.38 25.3091 410.895 26.5466 411.195 27.8966C411.495 29.2278 411.645 30.5216 411.645 31.7778V51.0716H402.702V32.8747C402.702 31.2247 402.355 29.9591 401.661 29.0778C400.986 28.1778 399.992 27.7278 398.68 27.7278C397.817 27.7278 397.048 27.9247 396.373 28.3184C395.717 28.6934 395.192 29.2653 394.798 30.0341C394.423 30.8028 394.236 31.7497 394.236 32.8747V51.0716H385.348V32.8747C385.348 31.2247 385.002 29.9591 384.308 29.0778C383.614 28.1778 382.611 27.7278 381.298 27.7278C380.023 27.7278 378.964 28.1684 378.12 29.0497C377.277 29.9122 376.855 31.2059 376.855 32.9309V51.0716H367.967Z" fill="black"/>
<path d="M340.537 50.1997C342.244 51.081 344.137 51.5216 346.219 51.5216C348.675 51.5216 350.85 50.9216 352.744 49.7216C353.702 49.1049 354.574 48.4017 355.359 47.6122H355.585C355.853 48.2274 356.246 48.7711 356.766 49.2435C357.797 50.181 359.428 50.9403 361.659 51.5216L364.809 44.0966C363.834 43.7403 363.187 43.3185 362.869 42.831C362.55 42.3435 362.391 41.556 362.391 40.4685V20.8091H353.503V38.6403C353.503 39.7466 353.287 40.7028 352.856 41.5091C352.444 42.2966 351.862 42.906 351.112 43.3372C350.381 43.7685 349.528 43.9841 348.553 43.9841C347.241 43.9841 346.125 43.5341 345.206 42.6341C344.306 41.7153 343.856 40.3841 343.856 38.6403V20.8091H334.969V39.8216C334.969 42.3716 335.466 44.5185 336.459 46.2622C337.472 47.9872 338.831 49.2997 340.537 50.1997Z" fill="black"/>
<path fill-rule="evenodd" clip-rule="evenodd" d="M243.024 51.5216C240.117 51.5216 237.464 50.8559 235.064 49.5247C232.683 48.1934 230.78 46.3559 229.355 44.0122C227.949 41.6684 227.246 38.9684 227.246 35.9122C227.246 32.8559 227.949 30.1559 229.355 27.8122C230.78 25.4684 232.683 23.6403 235.064 22.3278C237.464 21.0153 240.117 20.3591 243.024 20.3591C245.986 20.3591 248.658 21.0153 251.039 22.3278C253.421 23.6403 255.305 25.4684 256.692 27.8122C258.099 30.1559 258.802 32.8559 258.802 35.9122C258.802 38.9684 258.099 41.6684 256.692 44.0122C255.305 46.3559 253.411 48.1934 251.011 49.5247C248.63 50.8559 245.967 51.5216 243.024 51.5216ZM243.024 43.9278C244.411 43.9278 245.658 43.5903 246.764 42.9153C247.871 42.2403 248.742 41.3028 249.38 40.1028C250.017 38.9028 250.336 37.5059 250.336 35.9122C250.336 34.3747 250.027 33.0059 249.408 31.8059C248.789 30.6059 247.936 29.6684 246.849 28.9934C245.761 28.2997 244.505 27.9528 243.08 27.9528C241.674 27.9528 240.408 28.2903 239.283 28.9653C238.177 29.6216 237.305 30.5497 236.667 31.7497C236.03 32.9497 235.711 34.3372 235.711 35.9122C235.711 37.5059 236.03 38.9028 236.667 40.1028C237.324 41.3028 238.205 42.2403 239.311 42.9153C240.417 43.5903 241.655 43.9278 243.024 43.9278Z" fill="black"/>
<path fill-rule="evenodd" clip-rule="evenodd" d="M207.86 63.3341C205.347 63.3341 203.041 63.0247 200.941 62.406C198.86 61.806 197.219 61.1872 196.019 60.5497L198.944 53.5747C199.994 54.2122 201.213 54.756 202.6 55.206C204.006 55.6747 205.431 55.9091 206.875 55.9091C208.113 55.9091 209.397 55.7029 210.728 55.2904C212.06 54.8779 213.194 54.2216 214.131 53.3216C215.069 52.4404 215.538 51.2779 215.538 49.8341V46.9091H215.403C214.853 47.452 214.26 47.9489 213.625 48.3997C211.619 49.806 209.331 50.5091 206.763 50.5091C205.169 50.5091 203.585 50.2091 202.01 49.6091C200.435 48.9904 199 48.0622 197.706 46.8247C196.431 45.5685 195.41 44.0029 194.641 42.1279C193.872 40.2529 193.488 38.0497 193.488 35.5185C193.488 32.1435 194.144 29.3404 195.456 27.1091C196.788 24.8591 198.494 23.1716 200.575 22.0466C202.656 20.9029 204.822 20.331 207.072 20.331C209.678 20.331 211.956 20.9966 213.906 22.3279C214.532 22.7511 215.114 23.2199 215.651 23.7341H215.819V20.781H223.891V49.3279C223.891 51.6341 223.497 53.6591 222.71 55.4029C221.922 57.1466 220.806 58.6091 219.363 59.7904C217.938 60.9716 216.25 61.8529 214.3 62.4341C212.35 63.0341 210.203 63.3341 207.86 63.3341ZM208.956 43.281C210.306 43.281 211.497 42.9435 212.528 42.2685C213.56 41.5935 214.375 40.656 214.975 39.456C215.575 38.2372 215.875 36.831 215.875 35.2372C215.875 33.6247 215.585 32.2466 215.003 31.1029C214.422 29.9404 213.625 29.0497 212.613 28.431C211.6 27.8122 210.428 27.5029 209.097 27.5029C207.766 27.5029 206.575 27.8216 205.525 28.4591C204.475 29.0779 203.65 29.9685 203.05 31.131C202.469 32.2935 202.178 33.6622 202.178 35.2372C202.178 36.8122 202.469 38.2091 203.05 39.4279C203.631 40.6279 204.428 41.5747 205.441 42.2685C206.453 42.9435 207.625 43.281 208.956 43.281Z" fill="black"/>
<path fill-rule="evenodd" clip-rule="evenodd" d="M175.454 51.5216C172.547 51.5216 169.894 50.8559 167.494 49.5247C165.113 48.1934 163.21 46.3559 161.785 44.0122C160.379 41.6684 159.676 38.9684 159.676 35.9122C159.676 32.8559 160.379 30.1559 161.785 27.8122C163.21 25.4684 165.113 23.6403 167.494 22.3278C169.894 21.0153 172.547 20.3591 175.454 20.3591C178.416 20.3591 181.088 21.0153 183.469 22.3278C185.851 23.6403 187.735 25.4684 189.122 27.8122C190.529 30.1559 191.232 32.8559 191.232 35.9122C191.232 38.9684 190.529 41.6684 189.122 44.0122C187.735 46.3559 185.841 48.1934 183.441 49.5247C181.06 50.8559 178.397 51.5216 175.454 51.5216ZM175.454 43.9278C176.841 43.9278 178.088 43.5903 179.194 42.9153C180.301 42.2403 181.172 41.3028 181.81 40.1028C182.447 38.9028 182.766 37.5059 182.766 35.9122C182.766 34.3747 182.457 33.0059 181.838 31.8059C181.219 30.6059 180.366 29.6684 179.279 28.9934C178.191 28.2997 176.935 27.9528 175.51 27.9528C174.104 27.9528 172.838 28.2903 171.713 28.9653C170.607 29.6216 169.735 30.5497 169.097 31.7497C168.46 32.9497 168.141 34.3372 168.141 35.9122C168.141 37.5059 168.46 38.9028 169.097 40.1028C169.754 41.3028 170.635 42.2403 171.741 42.9153C172.847 43.5903 174.085 43.9278 175.454 43.9278Z" fill="black"/>
<path d="M135.648 51.0716V9.61536H144.873V42.8591H159.807V51.0716H135.648Z" fill="black"/>
<path fill-rule="evenodd" clip-rule="evenodd" d="M276.184 65.9691V74.2841H275.931C275.564 73.9649 275.18 73.6649 274.777 73.3841C272.809 71.9966 270.54 71.3029 267.971 71.3029C265.702 71.3029 263.527 71.8935 261.446 73.0747C259.365 74.256 257.677 76.0091 256.384 78.3341C255.09 80.6591 254.471 83.556 254.527 87.0247C254.49 89.6497 254.846 91.9372 255.596 93.8872C256.346 95.8185 257.359 97.4216 258.634 98.6966C259.909 99.9716 261.334 100.928 262.909 101.565C264.484 102.203 266.077 102.522 267.69 102.522C270.24 102.522 272.527 101.809 274.552 100.384C275.567 99.6605 276.476 98.8167 277.279 97.8529H277.556C277.767 98.396 278.087 98.9116 278.518 99.3997C279.099 100.018 279.868 100.59 280.824 101.115C281.799 101.622 282.981 102.09 284.368 102.522L287.49 95.0966C286.627 94.7779 286.009 94.3935 285.634 93.9435C285.259 93.4935 285.071 92.7154 285.071 91.6091V60.8905L276.184 65.9691ZM273.259 94.056C272.246 94.731 271.084 95.0779 269.771 95.0966C268.477 95.0779 267.324 94.731 266.312 94.056C265.299 93.381 264.512 92.4247 263.949 91.1872C263.406 89.9497 263.143 88.506 263.162 86.856C263.143 85.1685 263.424 83.7247 264.006 82.5247C264.587 81.306 265.384 80.3779 266.396 79.7404C267.427 79.0841 268.609 78.7654 269.94 78.7841C271.196 78.7654 272.321 79.0747 273.315 79.7122C274.309 80.3497 275.096 81.2779 275.677 82.4966C276.259 83.6966 276.559 85.1497 276.577 86.856C276.559 88.506 276.259 89.9497 275.677 91.1872C275.096 92.4247 274.29 93.381 273.259 94.056Z" fill="black"/>
<path d="M386.512 102.072V71.8091H395.119V75.7747H395.254C395.492 75.4164 395.757 75.0789 396.047 74.7622C397.097 73.6372 398.353 72.7935 399.816 72.231C401.278 71.6497 402.844 71.3591 404.512 71.3591C406.537 71.3591 408.281 71.8278 409.744 72.7653C411.206 73.7028 412.331 74.9872 413.119 76.6185C413.906 78.2497 414.3 80.1341 414.3 82.2716V102.072H405.412V84.2122C405.412 82.3935 404.981 81.0341 404.119 80.1341C403.256 79.2153 402.084 78.756 400.603 78.756C399.628 78.756 398.747 78.9716 397.959 79.4028C397.172 79.8153 396.544 80.4341 396.075 81.2591C395.625 82.0653 395.4 83.0778 395.4 84.2966V102.072H386.512Z" fill="black"/>
<path fill-rule="evenodd" clip-rule="evenodd" d="M368.244 102.522C365.337 102.522 362.684 101.856 360.284 100.525C357.903 99.1935 356 97.356 354.575 95.0122C353.169 92.6685 352.465 89.9685 352.465 86.9122C352.465 83.856 353.169 81.156 354.575 78.8122C356 76.4685 357.903 74.6403 360.284 73.3278C362.684 72.0153 365.337 71.3591 368.244 71.3591C371.206 71.3591 373.878 72.0153 376.259 73.3278C378.64 74.6403 380.525 76.4685 381.912 78.8122C383.319 81.156 384.022 83.856 384.022 86.9122C384.022 89.9685 383.319 92.6685 381.912 95.0122C380.525 97.356 378.631 99.1935 376.231 100.525C373.85 101.856 371.187 102.522 368.244 102.522ZM368.244 94.9278C369.631 94.9278 370.878 94.5903 371.984 93.9153C373.09 93.2403 373.962 92.3028 374.6 91.1028C375.237 89.9028 375.556 88.506 375.556 86.9122C375.556 85.3747 375.247 84.006 374.628 82.806C374.009 81.606 373.156 80.6685 372.069 79.9935C370.981 79.2997 369.725 78.9528 368.3 78.9528C366.894 78.9528 365.628 79.2903 364.503 79.9653C363.397 80.6216 362.525 81.5497 361.887 82.7497C361.25 83.9497 360.931 85.3372 360.931 86.9122C360.931 88.506 361.25 89.9028 361.887 91.1028C362.544 92.3028 363.425 93.2403 364.531 93.9153C365.637 94.5903 366.875 94.9278 368.244 94.9278Z" fill="black"/>
<path d="M340.975 102.072V71.8091H349.862V102.072H340.975Z" fill="black"/>
<path d="M341.593 66.7747C342.643 67.8247 343.928 68.3497 345.447 68.3497C346.965 68.3497 348.24 67.8247 349.272 66.7747C350.322 65.7247 350.847 64.4497 350.847 62.9497C350.847 61.4122 350.322 60.1279 349.272 59.0966C348.24 58.0466 346.965 57.5216 345.447 57.5216C343.928 57.5216 342.643 58.0466 341.593 59.0966C340.543 60.1279 340.018 61.4122 340.018 62.9497C340.018 64.4497 340.543 65.7247 341.593 66.7747Z" fill="black"/>
<path d="M324.645 99.4278C326.464 101.49 329.239 102.522 332.97 102.522C334.114 102.522 335.239 102.418 336.345 102.212C337.47 102.006 338.455 101.697 339.299 101.284L336.43 94.281C336.111 94.4497 335.745 94.5903 335.333 94.7028C334.92 94.8153 334.499 94.8716 334.067 94.8716C333.149 94.8716 332.37 94.5903 331.733 94.0278C331.114 93.4466 330.805 92.5091 330.805 91.2153V79.1778H337.808V71.8091H330.805V63.0903H321.917V71.8091H316.855V79.1778H321.917V91.4403C321.917 94.6841 322.827 97.3466 324.645 99.4278Z" fill="black"/>
<path fill-rule="evenodd" clip-rule="evenodd" d="M293.609 101.284C295.165 102.109 296.965 102.522 299.009 102.522C301.371 102.522 303.453 102.053 305.253 101.115C306.708 100.365 307.773 99.5307 308.448 98.6122H308.585C308.848 99.0622 309.2 99.5122 309.641 99.9622C310.522 100.862 311.834 101.603 313.578 102.184L314.618 102.522L317.74 95.0966L317.065 94.8716C316.409 94.6653 315.949 94.2997 315.688 93.7747C315.443 93.231 315.322 92.4435 315.322 91.4122V82.2997C315.322 81.2122 315.19 80.0403 314.928 78.7841C314.684 77.5091 314.159 76.3185 313.353 75.2122C312.546 74.0872 311.31 73.1685 309.641 72.456C307.972 71.7247 305.722 71.3591 302.891 71.3591C301.072 71.3591 299.365 71.5091 297.771 71.8091C296.196 72.0903 294.79 72.4466 293.553 72.8778C292.334 73.3091 291.349 73.7403 290.599 74.1716L293.553 80.8653C294.246 80.4153 295.072 80.0216 296.029 79.6841C296.985 79.3278 297.978 79.056 299.009 78.8685C300.04 78.6622 301.006 78.5591 301.906 78.5591C302.693 78.5591 303.397 78.6528 304.016 78.8403C304.635 79.0091 305.159 79.2622 305.59 79.5997C306.021 79.9372 306.34 80.3497 306.546 80.8372C306.771 81.306 306.884 81.831 306.884 82.4122V83.931H301.174C298.549 83.931 296.299 84.3341 294.424 85.1403C292.568 85.9466 291.143 87.0528 290.149 88.4591C289.174 89.8653 288.688 91.4778 288.688 93.2966C288.688 95.0216 289.118 96.5778 289.981 97.9653C290.862 99.3528 292.071 100.459 293.609 101.284ZM302.243 89.4997H307.306V91.3841C307.306 92.4903 306.949 93.3716 306.237 94.0278C305.543 94.6841 304.718 95.1528 303.762 95.4341C302.806 95.7153 301.971 95.856 301.259 95.856C300.49 95.856 299.796 95.7341 299.178 95.4903C298.578 95.2278 298.109 94.8716 297.771 94.4216C297.434 93.9528 297.266 93.3903 297.266 92.7341C297.266 91.6278 297.687 90.8122 298.531 90.2872C299.393 89.7622 300.631 89.4997 302.243 89.4997Z" fill="black"/>
<path d="M224.699 102.072V71.8091H233.305V75.7747H233.441C233.679 75.4164 233.943 75.0789 234.234 74.7622C235.284 73.6372 236.54 72.7935 238.002 72.231C239.465 71.6497 241.03 71.3591 242.699 71.3591C244.724 71.3591 246.468 71.8278 247.93 72.7653C249.393 73.7028 250.518 74.9872 251.305 76.6185C252.093 78.2497 252.487 80.1341 252.487 82.2716V102.072H243.599V84.2122C243.599 82.3935 243.168 81.0341 242.305 80.1341C241.443 79.2153 240.271 78.756 238.79 78.756C237.815 78.756 236.934 78.9716 236.146 79.4028C235.359 79.8153 234.73 80.4341 234.262 81.2591C233.812 82.0653 233.587 83.0778 233.587 84.2966V102.072H224.699Z" fill="black"/>
<path d="M203.787 102.522C201.705 102.522 199.812 102.081 198.105 101.2C196.399 100.3 195.04 98.9872 194.027 97.2622C193.033 95.5185 192.537 93.3716 192.537 90.8216V71.8091H201.424V89.6403C201.424 91.3841 201.874 92.7153 202.774 93.6341C203.693 94.5341 204.808 94.9841 206.121 94.9841C207.096 94.9841 207.949 94.7685 208.68 94.3372C209.43 93.906 210.012 93.2966 210.424 92.5091C210.855 91.7028 211.071 90.7466 211.071 89.6403V71.8091H219.958V91.4685C219.958 92.556 220.118 93.3435 220.437 93.831C220.755 94.3185 221.402 94.7403 222.377 95.0966L219.227 102.522C216.996 101.94 215.365 101.181 214.333 100.243C213.814 99.7711 213.42 99.2274 213.153 98.6122H212.927C212.142 99.4018 211.27 100.105 210.312 100.722C208.418 101.922 206.243 102.522 203.787 102.522Z" fill="black"/>
<path fill-rule="evenodd" clip-rule="evenodd" d="M174.465 102.522C171.558 102.522 168.905 101.856 166.505 100.525C164.124 99.1935 162.221 97.356 160.796 95.0122C159.39 92.6685 158.686 89.9685 158.686 86.9122C158.686 83.856 159.39 81.156 160.796 78.8122C162.221 76.4685 164.124 74.6403 166.505 73.3278C168.905 72.0153 171.558 71.3591 174.465 71.3591C177.427 71.3591 180.099 72.0153 182.48 73.3278C184.861 74.6403 186.746 76.4685 188.133 78.8122C189.54 81.156 190.243 83.856 190.243 86.9122C190.243 89.9685 189.54 92.6685 188.133 95.0122C186.746 97.356 184.852 99.1935 182.452 100.525C180.071 101.856 177.408 102.522 174.465 102.522ZM174.465 94.9278C175.852 94.9278 177.099 94.5903 178.205 93.9153C179.311 93.2403 180.183 92.3028 180.821 91.1028C181.458 89.9028 181.777 88.506 181.777 86.9122C181.777 85.3747 181.468 84.006 180.849 82.806C180.23 81.606 179.377 80.6685 178.29 79.9935C177.202 79.2997 175.946 78.9528 174.521 78.9528C173.115 78.9528 171.849 79.2903 170.724 79.9653C169.618 80.6216 168.746 81.5497 168.108 82.7497C167.471 83.9497 167.152 85.3372 167.152 86.9122C167.152 88.506 167.471 89.9028 168.108 91.1028C168.765 92.3028 169.646 93.2403 170.752 93.9153C171.858 94.5903 173.096 94.9278 174.465 94.9278Z" fill="black"/>
<path d="M135.58 102.072V60.6154H159.739V68.8279H144.805V78.3622H157.236V86.5747H144.805V102.072H135.58Z" fill="black"/>
<path d="M114.864 50.5216H100.609C100.603 51.2482 100.176 51.9052 99.522 52.2318L90.3371 56.8115C89.6823 57.138 89.2643 57.795 89.2129 58.5216H103.467C103.513 57.7949 103.932 57.138 104.587 56.8115L113.772 52.2318C114.426 51.9053 114.852 51.2484 114.864 50.5216Z" fill="black"/>
<path d="M0.894531 58.5216H15.1496C15.1558 57.795 15.5825 57.138 16.2373 56.8115L25.4222 52.2318C26.0771 51.9052 26.495 51.2482 26.5464 50.5216H12.2913C12.2462 51.2484 11.827 51.9053 11.1722 52.2318L1.98735 56.8115C1.33252 57.138 0.907075 57.7949 0.894531 58.5216Z" fill="black"/>
<path d="M35.102 50.5216C35.0439 51.248 34.6272 51.9052 33.9723 52.2318L24.7874 56.8115C24.1325 57.138 23.7045 57.7952 23.7051 58.5216H37.9788C37.9485 57.7967 38.3822 57.1382 39.0374 56.8115L48.2223 52.2318C48.8775 51.9051 49.2886 51.2465 49.3758 50.5216H35.102Z" fill="black"/>
<path d="M77.7797 50.5216C77.81 51.2465 77.3763 51.9051 76.7211 52.2318L67.5362 56.8115C66.881 57.1382 66.4699 57.7967 66.3828 58.5216H80.6566C80.7147 57.7952 81.1313 57.138 81.7862 56.8115L90.9711 52.2318C91.626 51.9052 92.054 51.248 92.0534 50.5216H77.7797Z" fill="black"/>
</g>
<defs>
<clipPath id="clip0_2673_116">
<rect width="415" height="109" fill="white"/>
</clipPath>
</defs>
</svg>
